<svg id="Group_35722" data-name="Group 35722" xmlns="http://www.w3.org/2000/svg" width="53.7" height="53.7" viewBox="0 0 53.7 53.7">
  <path id="Path_81636" data-name="Path 81636" d="M26.85,0A26.85,26.85,0,1,1,0,26.85,26.85,26.85,0,0,1,26.85,0Z" fill="#ef90c3" opacity="0.92"/>
  <g id="active_-_students" data-name="active - students" transform="translate(15.197 15.071)">
    <g id="Group_2827" data-name="Group 2827">
      <g id="Group_2826" data-name="Group 2826" transform="translate(0 0)">
        <path id="Path_81631" data-name="Path 81631" d="M5298.181,950.7a2.2,2.2,0,0,1-.1.66,6.308,6.308,0,0,0-1.473-1.749,2.62,2.62,0,0,1-1.556-4.886A7.274,7.274,0,0,1,5298.181,950.7Z" transform="translate(-5275.661 -935.968)" fill="#fff"/>
        <path id="Path_7884" data-name="Path 7884" d="M5262.09,890.91a3.565,3.565,0,0,0-2.484,1.035,6.991,6.991,0,0,1,.722,1.138,2.351,2.351,0,0,1,1.763-.862c1.466,0,2.661,1.535,2.661,3.422s-1.193,3.422-2.661,3.422a2.188,2.188,0,0,1-1.224-.387,7.441,7.441,0,0,1-.467,1.252,3.441,3.441,0,0,0,1.691.446c2.244,0,3.971-2.17,3.971-4.734S5264.333,890.91,5262.09,890.91Z" transform="translate(-5246.85 -890.91)" fill="#fff"/>
        <path id="Path_81632" data-name="Path 81632" d="M5191.961,963.572a6.152,6.152,0,0,0,.374,1.367,19.026,19.026,0,0,1-8.319-.621c-2.317-.851-2.8-2.09-2.8-2.976a8.229,8.229,0,0,1,3.738-6.9,6.341,6.341,0,0,0,1.007,1.022,6.838,6.838,0,0,0-3.344,5.871c0,.843,1.182,1.4,1.884,1.661a17.6,17.6,0,0,0,7.46.573Z" transform="translate(-5181.216 -944.106)" fill="#fff"/>
        <path id="Path_81633" data-name="Path 81633" d="M5256.521,956.637a6.257,6.257,0,0,0-1.3.6,6.843,6.843,0,0,0-1.969-1.767,6.281,6.281,0,0,0,1.007-1.022A8.18,8.18,0,0,1,5256.521,956.637Z" transform="translate(-5241.534 -944.106)" fill="#fff"/>
        <path id="Path_7886" data-name="Path 7886" d="M5208.2,892.115c-2.6,0-4.594,2.507-4.594,5.476s2,5.474,4.594,5.474,4.594-2.508,4.594-5.474S5210.795,892.115,5208.2,892.115Zm0,9.539c-1.761,0-3.191-1.827-3.191-4.068s1.427-4.071,3.191-4.071v0c1.759,0,3.191,1.827,3.191,4.068S5209.959,901.654,5208.2,901.654Z" transform="translate(-5199.963 -891.919)" fill="#fff"/>
      </g>
    </g>
    <g id="Group_35727" data-name="Group 35727" transform="translate(11.691 13.032)">
      <g id="Group_35725" data-name="Group 35725" transform="translate(0)">
        <path id="Path_81634" data-name="Path 81634" d="M5263.228,978.178a5.266,5.266,0,1,1-.208-4.3l-1.346.588a3.8,3.8,0,1,0-5.049,5.186,3.447,3.447,0,0,0,.317.142,3.8,3.8,0,0,0,4.922-2.15,3.227,3.227,0,0,0,.111-.329l1.6-.7A5.21,5.21,0,0,1,5263.228,978.178Z" transform="translate(-5253.065 -970.995)" fill="#fff"/>
      </g>
      <g id="Group_35726" data-name="Group 35726" transform="translate(3.468 2.516)">
        <path id="Path_81635" data-name="Path 81635" d="M5275.793,991.37l-1.353-3.1a.732.732,0,0,1,1.342-.586l.767,1.755,6.7-2.925a.732.732,0,1,1,.586,1.342Z" transform="translate(-5274.378 -986.456)" fill="#fff"/>
      </g>
    </g>
  </g>
</svg>
