<svg id="Layer_2" data-name="Layer 2" xmlns="http://www.w3.org/2000/svg" width="22" height="18.48" viewBox="0 0 22 18.48">
  <g id="Options">
    <path id="Path_1" data-name="Path 1" d="M17.82,9.2H20.9a1.1,1.1,0,1,0,0-2.2H17.82a1.1,1.1,0,0,0,0,2.2ZM6.82,7H1.1a1.1,1.1,0,1,0,0,2.2H6.82a1.1,1.1,0,1,0,0-2.2ZM4.18,17.12H1.1a1.1,1.1,0,0,0,0,2.2H4.18a1.1,1.1,0,0,0,0-2.2Zm16.72,0H15.18a1.1,1.1,0,0,0,0,2.2H20.9a1.1,1.1,0,1,0,0-2.2Z" transform="translate(0 -3.92)" fill="#fff"/>
    <g id="Group_1" data-name="Group 1" transform="translate(3.96)">
      <path id="Path_2" data-name="Path 2" d="M13.18,10.12a4.18,4.18,0,1,0,4.18,4.18A4.18,4.18,0,0,0,13.18,10.12Zm0,6.16a1.98,1.98,0,1,1,1.98-1.98,1.98,1.98,0,0,1-1.98,1.98ZM18.9,0a4.18,4.18,0,1,0,4.18,4.18A4.18,4.18,0,0,0,18.9,0Zm0,6.16a1.98,1.98,0,1,1,1.98-1.98A1.98,1.98,0,0,1,18.9,6.16Z" transform="translate(-9 0)" fill="#fe673a"/>
    </g>
  </g>
</svg>
