<svg width="24" height="25" viewBox="0 0 24 25" fill="none" xmlns="http://www.w3.org/2000/svg">
<path d="M6.3 22.155C5.8 22.155 5.375 21.98 5.025 21.63C4.675 21.28 4.5 20.855 4.5 20.355V10.955C4.5 10.455 4.675 10.03 5.025 9.68003C5.375 9.33003 5.8 9.15503 6.3 9.15503H7.5V7.15503C7.5 5.90503 7.93733 4.84236 8.812 3.96703C9.68733 3.09236 10.75 2.65503 12 2.65503C13.25 2.65503 14.3127 3.09236 15.188 3.96703C16.0627 4.84236 16.5 5.90503 16.5 7.15503V9.15503H17.7C18.2 9.15503 18.625 9.33003 18.975 9.68003C19.325 10.03 19.5 10.455 19.5 10.955V20.355C19.5 20.855 19.325 21.28 18.975 21.63C18.625 21.98 18.2 22.155 17.7 22.155H6.3ZM6.3 20.655H17.7C17.7833 20.655 17.8543 20.626 17.913 20.568C17.971 20.5094 18 20.4384 18 20.355V10.955C18 10.8717 17.971 10.8007 17.913 10.742C17.8543 10.684 17.7833 10.655 17.7 10.655H6.3C6.21667 10.655 6.146 10.684 6.088 10.742C6.02933 10.8007 6 10.8717 6 10.955V20.355C6 20.4384 6.02933 20.5094 6.088 20.568C6.146 20.626 6.21667 20.655 6.3 20.655ZM12 17.405C12.4833 17.405 12.896 17.2344 13.238 16.893C13.5793 16.551 13.75 16.1384 13.75 15.655C13.75 15.1717 13.5793 14.759 13.238 14.417C12.896 14.0757 12.4833 13.905 12 13.905C11.5167 13.905 11.104 14.0757 10.762 14.417C10.4207 14.759 10.25 15.1717 10.25 15.655C10.25 16.1384 10.4207 16.551 10.762 16.893C11.104 17.2344 11.5167 17.405 12 17.405ZM9 9.15503H15V7.15503C15 6.3217 14.7083 5.61336 14.125 5.03003C13.5417 4.4467 12.8333 4.15503 12 4.15503C11.1667 4.15503 10.4583 4.4467 9.875 5.03003C9.29167 5.61336 9 6.3217 9 7.15503V9.15503Z" fill="#00A79D"/>
</svg>
