<svg xmlns="http://www.w3.org/2000/svg" width="54" height="54" viewBox="0 0 54 54">
  <g id="Group_35722" data-name="Group 35722" transform="translate(0.486 0.344)">
    <circle id="Ellipse_3810" data-name="Ellipse 3810" cx="27" cy="27" r="27" transform="translate(-0.486 -0.344)" fill="#4e8be7" opacity="0.92"/>
    <g id="students" transform="translate(15.198 16.211)">
      <g id="students-2" data-name="students" transform="translate(0 0)">
        <g id="Group_2826" data-name="Group 2826" transform="translate(0 0)">
          <path id="Path_7883" data-name="Path 7883" d="M366.4,193.978a6.092,6.092,0,0,1-1.082,1.124,6.077,6.077,0,0,1,2.818,5.126c0,.7-1.025,1.18-1.636,1.405a9.773,9.773,0,0,1-1.649.428q.03.388.03.784a4.008,4.008,0,0,1-.078.784,11.739,11.739,0,0,0,2.228-.553c2.184-.8,2.642-1.992,2.642-2.847A7.61,7.61,0,0,0,366.4,193.978Z" transform="translate(-346.116 -184.817)" fill="#fff"/>
          <path id="Path_7884" data-name="Path 7884" d="M263.118,15.147a3.729,3.729,0,0,0-2.6,1.083,7.29,7.29,0,0,1,.755,1.191,2.459,2.459,0,0,1,1.844-.9c1.534,0,2.783,1.606,2.783,3.58s-1.248,3.58-2.783,3.58a2.288,2.288,0,0,1-1.28-.4,7.823,7.823,0,0,1-.488,1.31,3.6,3.6,0,0,0,1.769.466c2.348,0,4.155-2.269,4.155-4.952S265.466,15.147,263.118,15.147Z" transform="translate(-247.175 -15.147)" fill="#fff"/>
          <path id="Path_7885" data-name="Path 7885" d="M13.319,226.28a6.739,6.739,0,0,1-1.054,1.07,7.15,7.15,0,0,1,3.5,6.142c0,.881-1.235,1.467-1.971,1.738A15.824,15.824,0,0,1,8.614,236a15.824,15.824,0,0,1-5.177-.772c-.736-.271-1.971-.857-1.971-1.738a7.15,7.15,0,0,1,3.5-6.142,6.738,6.738,0,0,1-1.054-1.07A8.614,8.614,0,0,0,0,233.492c0,.929.508,2.223,2.931,3.114a17.07,17.07,0,0,0,5.683.863,17.07,17.07,0,0,0,5.683-.863c2.422-.892,2.931-2.186,2.931-3.114A8.614,8.614,0,0,0,13.319,226.28Z" transform="translate(0 -215.465)" fill="#fff"/>
          <path id="Path_7886" data-name="Path 7886" d="M79.159,30.61c2.715,0,4.805-2.624,4.805-5.727s-2.09-5.727-4.805-5.727-4.805,2.624-4.805,5.727S76.445,30.61,79.159,30.61Zm0-9.988c1.841,0,3.338,1.911,3.338,4.26s-1.5,4.26-3.338,4.26-3.338-1.911-3.338-4.26S77.319,20.623,79.159,20.623Z" transform="translate(-70.545 -18.951)" fill="#fff"/>
        </g>
      </g>
    </g>
  </g>
</svg>
