<svg width="18" height="19" viewBox="0 0 18 19" fill="none" xmlns="http://www.w3.org/2000/svg">
<mask id="mask0_1202_71377" style="mask-type:alpha" maskUnits="userSpaceOnUse" x="0" y="0" width="18" height="19">
<rect y="0.405029" width="18" height="18" fill="#818181"/>
</mask>
<g mask="url(#mask0_1202_71377)">
<path d="M8.99961 12.0863C9.84961 12.0863 10.5714 11.7893 11.1649 11.1953C11.7589 10.6018 12.0559 9.88003 12.0559 9.03003C12.0559 8.18003 11.7589 7.45828 11.1649 6.86478C10.5714 6.27078 9.84961 5.97378 8.99961 5.97378C8.14961 5.97378 7.42786 6.27078 6.83436 6.86478C6.24036 7.45828 5.94336 8.18003 5.94336 9.03003C5.94336 9.88003 6.24036 10.6018 6.83436 11.1953C7.42786 11.7893 8.14961 12.0863 8.99961 12.0863ZM8.99961 11.055C8.43711 11.055 7.95911 10.858 7.56561 10.464C7.17161 10.0705 6.97461 9.59253 6.97461 9.03003C6.97461 8.46753 7.17161 7.98928 7.56561 7.59528C7.95911 7.20178 8.43711 7.00503 8.99961 7.00503C9.56211 7.00503 10.0404 7.20178 10.4344 7.59528C10.8279 7.98928 11.0246 8.46753 11.0246 9.03003C11.0246 9.59253 10.8279 10.0705 10.4344 10.464C10.0404 10.858 9.56211 11.055 8.99961 11.055ZM8.99961 14.28C7.27461 14.28 5.70286 13.805 4.28436 12.855C2.86536 11.905 1.82461 10.63 1.16211 9.03003C1.82461 7.43003 2.86536 6.15503 4.28436 5.20503C5.70286 4.25503 7.27461 3.78003 8.99961 3.78003C10.7246 3.78003 12.2966 4.25503 13.7156 5.20503C15.1341 6.15503 16.1746 7.43003 16.8371 9.03003C16.1746 10.63 15.1341 11.905 13.7156 12.855C12.2966 13.805 10.7246 14.28 8.99961 14.28ZM8.99961 13.155C10.4121 13.155 11.7091 12.783 12.8906 12.039C14.0716 11.2955 14.9746 10.2925 15.5996 9.03003C14.9746 7.76753 14.0716 6.76428 12.8906 6.02028C11.7091 5.27678 10.4121 4.90503 8.99961 4.90503C7.58711 4.90503 6.29011 5.27678 5.10861 6.02028C3.92761 6.76428 3.02461 7.76753 2.39961 9.03003C3.02461 10.2925 3.92761 11.2955 5.10861 12.039C6.29011 12.783 7.58711 13.155 8.99961 13.155Z" fill="#818181"/>
</g>
</svg>
