<svg width="20" height="20" viewBox="0 0 20 20" fill="none" xmlns="http://www.w3.org/2000/svg">
<path d="M4.025 15.705C4.875 15.0717 5.8 14.5717 6.8 14.205C7.8 13.8384 8.86667 13.655 10 13.655C11.1333 13.655 12.2 13.8384 13.2 14.205C14.2 14.5717 15.125 15.0717 15.975 15.705C16.5917 15.0217 17.0833 14.23 17.45 13.33C17.8167 12.43 18 11.455 18 10.405C18 8.18836 17.221 6.3007 15.663 4.74203C14.1043 3.18403 12.2167 2.40503 10 2.40503C7.78333 2.40503 5.896 3.18403 4.338 4.74203C2.77933 6.3007 2 8.18836 2 10.405C2 11.455 2.18333 12.43 2.55 13.33C2.91667 14.23 3.40833 15.0217 4.025 15.705ZM10 11.155C9.08333 11.155 8.31267 10.8424 7.688 10.217C7.06267 9.59236 6.75 8.8217 6.75 7.90503C6.75 6.98836 7.06267 6.2177 7.688 5.59303C8.31267 4.9677 9.08333 4.65503 10 4.65503C10.9167 4.65503 11.6873 4.9677 12.312 5.59303C12.9373 6.2177 13.25 6.98836 13.25 7.90503C13.25 8.8217 12.9373 9.59236 12.312 10.217C11.6873 10.8424 10.9167 11.155 10 11.155ZM10 19.905C8.68333 19.905 7.446 19.655 6.288 19.155C5.12933 18.655 4.125 17.98 3.275 17.13C2.425 16.28 1.75 15.2757 1.25 14.117C0.75 12.959 0.5 11.7217 0.5 10.405C0.5 9.08836 0.75 7.8507 1.25 6.69203C1.75 5.53403 2.425 4.53003 3.275 3.68003C4.125 2.83003 5.12933 2.15503 6.288 1.65503C7.446 1.15503 8.68333 0.905029 10 0.905029C11.3167 0.905029 12.5543 1.15503 13.713 1.65503C14.871 2.15503 15.875 2.83003 16.725 3.68003C17.575 4.53003 18.25 5.53403 18.75 6.69203C19.25 7.8507 19.5 9.08836 19.5 10.405C19.5 11.7217 19.25 12.959 18.75 14.117C18.25 15.2757 17.575 16.28 16.725 17.13C15.875 17.98 14.871 18.655 13.713 19.155C12.5543 19.655 11.3167 19.905 10 19.905ZM10 18.405C10.9 18.405 11.771 18.259 12.613 17.967C13.4543 17.6757 14.2 17.2717 14.85 16.755C14.2 16.255 13.4623 15.8634 12.637 15.58C11.8123 15.2967 10.9333 15.155 10 15.155C9.06667 15.155 8.18767 15.2927 7.363 15.568C6.53767 15.8427 5.8 16.2384 5.15 16.755C5.8 17.2717 6.54567 17.6757 7.387 17.967C8.229 18.259 9.1 18.405 10 18.405ZM10 9.65503C10.5 9.65503 10.9167 9.48836 11.25 9.15503C11.5833 8.8217 11.75 8.40503 11.75 7.90503C11.75 7.40503 11.5833 6.98836 11.25 6.65503C10.9167 6.3217 10.5 6.15503 10 6.15503C9.5 6.15503 9.08333 6.3217 8.75 6.65503C8.41667 6.98836 8.25 7.40503 8.25 7.90503C8.25 8.40503 8.41667 8.8217 8.75 9.15503C9.08333 9.48836 9.5 9.65503 10 9.65503Z" fill="#00A79D"/>
</svg>
