<svg width="20" height="20" viewBox="0 0 20 20" fill="none" xmlns="http://www.w3.org/2000/svg">
<g id="Pre icon">
<mask id="mask0_8482_278780" style="mask-type:alpha" maskUnits="userSpaceOnUse" x="0" y="0" width="20" height="20">
<rect id="Bounding box" width="20" height="20" fill="#D9D9D9"/>
</mask>
<g mask="url(#mask0_8482_278780)">
<path id="close" d="M10.0007 10.8747L5.77148 15.1038C5.66037 15.215 5.51815 15.2738 5.34482 15.2805C5.17093 15.2877 5.02148 15.2288 4.89648 15.1038C4.77148 14.9788 4.70898 14.833 4.70898 14.6663C4.70898 14.4997 4.77148 14.3538 4.89648 14.2288L9.12565 9.99967L4.89648 5.77051C4.78537 5.6594 4.72648 5.5169 4.71982 5.34301C4.7126 5.16967 4.77148 5.02051 4.89648 4.89551C5.02148 4.77051 5.16732 4.70801 5.33398 4.70801C5.50065 4.70801 5.64648 4.77051 5.77148 4.89551L10.0007 9.12467L14.2298 4.89551C14.3409 4.7844 14.4834 4.72523 14.6573 4.71801C14.8307 4.71134 14.9798 4.77051 15.1048 4.89551C15.2298 5.02051 15.2923 5.16634 15.2923 5.33301C15.2923 5.49967 15.2298 5.64551 15.1048 5.77051L10.8757 9.99967L15.1048 14.2288C15.2159 14.34 15.2748 14.4822 15.2815 14.6555C15.2887 14.8294 15.2298 14.9788 15.1048 15.1038C14.9798 15.2288 14.834 15.2913 14.6673 15.2913C14.5007 15.2913 14.3548 15.2288 14.2298 15.1038L10.0007 10.8747Z" fill="#333333"/>
</g>
</g>
</svg>
