<svg width="20" height="21" viewBox="0 0 20 21" fill="none" xmlns="http://www.w3.org/2000/svg">
<rect y="0.405029" width="20" height="20" rx="4" fill="#366EE3"/>
<path d="M7.77267 15.2006C7.66661 15.2006 7.56449 15.1815 7.46631 15.1433C7.36752 15.1057 7.28024 15.0491 7.20449 14.9733L3.40903 11.1779C3.27267 11.0415 3.20812 10.8785 3.2154 10.6888C3.22327 10.4997 3.28782 10.337 3.40903 10.2006C3.5454 10.0642 3.70843 9.99605 3.89812 9.99605C4.08721 9.99605 4.24237 10.0642 4.36358 10.2006L7.77267 13.6097L15.6363 5.74605C15.7575 5.60969 15.9166 5.5415 16.1136 5.5415C16.3105 5.5415 16.4696 5.60969 16.5909 5.74605C16.7272 5.88241 16.7954 6.04514 16.7954 6.23423C16.7954 6.42393 16.7272 6.58696 16.5909 6.72332L8.34085 14.9733C8.26509 15.0491 8.17812 15.1057 8.07994 15.1433C7.98115 15.1815 7.87873 15.2006 7.77267 15.2006Z" fill="white"/>
</svg>
