<svg width="12" height="12" viewBox="0 0 12 12" fill="none" xmlns="http://www.w3.org/2000/svg">
<path d="M5.99992 6.87492L1.77075 11.1041C1.65964 11.2152 1.51742 11.2741 1.34409 11.2808C1.1702 11.288 1.02075 11.2291 0.895752 11.1041C0.770752 10.9791 0.708252 10.8333 0.708252 10.6666C0.708252 10.4999 0.770752 10.3541 0.895752 10.2291L5.12492 5.99992L0.895752 1.77075C0.784641 1.65964 0.725752 1.51714 0.719085 1.34325C0.711863 1.16992 0.770752 1.02075 0.895752 0.895752C1.02075 0.770752 1.16659 0.708252 1.33325 0.708252C1.49992 0.708252 1.64575 0.770752 1.77075 0.895752L5.99992 5.12492L10.2291 0.895752C10.3402 0.784641 10.4827 0.725474 10.6566 0.718252C10.8299 0.711585 10.9791 0.770752 11.1041 0.895752C11.2291 1.02075 11.2916 1.16659 11.2916 1.33325C11.2916 1.49992 11.2291 1.64575 11.1041 1.77075L6.87492 5.99992L11.1041 10.2291C11.2152 10.3402 11.2741 10.4824 11.2808 10.6558C11.288 10.8296 11.2291 10.9791 11.1041 11.1041C10.9791 11.2291 10.8333 11.2916 10.6666 11.2916C10.4999 11.2916 10.3541 11.2291 10.2291 11.1041L5.99992 6.87492Z" fill="#1DA687"/>
</svg>
