<svg width="20" height="20" viewBox="0 0 20 20" fill="none" xmlns="http://www.w3.org/2000/svg">
<g id="icons /  Webapp UI">
<mask id="mask0_8713_38628" style="mask-type:alpha" maskUnits="userSpaceOnUse" x="0" y="0" width="20" height="20">
<rect id="Bounding box" width="20" height="20" fill="#D9D9D9"/>
</mask>
<g mask="url(#mask0_8713_38628)">
<path id="cancel" d="M6.56315 13.4372C6.68815 13.5622 6.83398 13.6247 7.00065 13.6247C7.16732 13.6247 7.31315 13.5622 7.43815 13.4372L10.0007 10.8747L12.584 13.458C12.6951 13.5691 12.8376 13.6211 13.0115 13.6138C13.1848 13.6072 13.327 13.5483 13.4382 13.4372C13.5632 13.3122 13.6257 13.1663 13.6257 12.9997C13.6257 12.833 13.5632 12.6872 13.4382 12.5622L10.8757 9.99967L13.459 7.41634C13.5701 7.30523 13.622 7.16273 13.6148 6.98884C13.6082 6.81551 13.5493 6.67329 13.4382 6.56217C13.3132 6.43717 13.1673 6.37467 13.0007 6.37467C12.834 6.37467 12.6882 6.43717 12.5632 6.56217L10.0007 9.12467L7.41732 6.54134C7.30621 6.43023 7.16398 6.37801 6.99065 6.38467C6.81676 6.3919 6.67426 6.45106 6.56315 6.56217C6.43815 6.68717 6.37565 6.83301 6.37565 6.99967C6.37565 7.16634 6.43815 7.31217 6.56315 7.43717L9.12565 9.99967L6.54232 12.583C6.43121 12.6941 6.37926 12.8363 6.38648 13.0097C6.39315 13.1836 6.45204 13.3261 6.56315 13.4372ZM10.0007 17.9163C8.90343 17.9163 7.87232 17.708 6.90732 17.2913C5.94176 16.8747 5.10482 16.3122 4.39648 15.6038C3.68815 14.8955 3.12565 14.0586 2.70898 13.093C2.29232 12.128 2.08398 11.0969 2.08398 9.99967C2.08398 8.90245 2.29232 7.87106 2.70898 6.90551C3.12565 5.94051 3.68815 5.10384 4.39648 4.39551C5.10482 3.68717 5.94176 3.12467 6.90732 2.70801C7.87232 2.29134 8.90343 2.08301 10.0007 2.08301C11.0979 2.08301 12.1293 2.29134 13.0948 2.70801C14.0598 3.12467 14.8965 3.68717 15.6048 4.39551C16.3132 5.10384 16.8757 5.94051 17.2923 6.90551C17.709 7.87106 17.9173 8.90245 17.9173 9.99967C17.9173 11.0969 17.709 12.128 17.2923 13.093C16.8757 14.0586 16.3132 14.8955 15.6048 15.6038C14.8965 16.3122 14.0598 16.8747 13.0948 17.2913C12.1293 17.708 11.0979 17.9163 10.0007 17.9163ZM10.0007 16.6663C11.8479 16.6663 13.4209 16.0172 14.7198 14.7188C16.0182 13.42 16.6673 11.8469 16.6673 9.99967C16.6673 8.15245 16.0182 6.5794 14.7198 5.28051C13.4209 3.98217 11.8479 3.33301 10.0007 3.33301C8.15343 3.33301 6.58065 3.98217 5.28232 5.28051C3.98343 6.5794 3.33398 8.15245 3.33398 9.99967C3.33398 11.8469 3.98343 13.42 5.28232 14.7188C6.58065 16.0172 8.15343 16.6663 10.0007 16.6663Z" fill="#1DA687"/>
</g>
</g>
</svg>
