<svg width="56" height="51" viewBox="0 0 56 51" fill="none" xmlns="http://www.w3.org/2000/svg">
<path d="M25.6253 28.9879C26.1463 28.5783 26.5676 28.0563 26.8576 27.461C27.1477 26.8656 27.2989 26.2125 27.2999 25.5504V11.6469C27.3172 11.0126 27.2769 10.378 27.1793 9.75093C26.4592 5.19332 22.5909 0.612305 15.5474 0.612305C6.97337 0.612305 0.000239191 7.85834 0.000239191 16.7663C-0.022191 20.921 1.53367 24.9298 4.35425 27.9847C4.48447 28.1332 4.64883 28.2479 4.83321 28.3191C4.72158 29.6826 4.99297 31.0502 5.61692 32.2682C6.62169 34.2744 8.57431 35.9163 10.8987 36.3075V36.3309C10.9824 39.2066 12.647 42.0154 15.0417 43.286C15.3537 43.452 15.6785 43.5929 16.013 43.7073C17.8282 45.1953 25.1162 49.9937 25.431 50.2044C25.6306 50.3335 25.863 50.4031 26.1009 50.405C26.3055 50.4058 26.5071 50.3552 26.687 50.2578C26.883 50.1524 27.0468 49.9961 27.1612 49.8054C27.2756 49.6147 27.3362 49.3967 27.3368 49.1745V33.5589C27.3542 31.876 26.7442 30.2467 25.6253 28.9879ZM20.1191 43.6137C20.6256 43.4291 21.1116 43.1926 21.5694 42.9082C21.7161 42.8273 21.8449 42.7174 21.9478 42.5852C22.0507 42.4531 22.1256 42.3014 22.1679 42.1394C22.2102 41.9775 22.2191 41.8086 22.1939 41.6431C22.1688 41.4776 22.1102 41.3189 22.0217 41.1767C21.9333 41.0346 21.8167 40.9118 21.6792 40.8161C21.5417 40.7203 21.3861 40.6534 21.2219 40.6196C21.0577 40.5857 20.8883 40.5856 20.7241 40.6192C20.5598 40.6528 20.4042 40.7194 20.2665 40.8149C18.8866 41.6709 17.4866 41.7646 16.2173 41.0824C14.6029 40.2164 13.434 38.2201 13.3771 36.2272C13.3768 36.2217 13.3768 36.2161 13.3771 36.2105L13.6752 36.1369C14.4857 36.8057 16.0197 37.8423 17.8953 37.8423H18.0359C19.6335 37.7955 21.0703 37.0197 22.2995 35.5317C22.4117 35.4082 22.4976 35.2633 22.5522 35.1057C22.6067 34.948 22.6287 34.781 22.6168 34.6147C22.6048 34.4484 22.5593 34.2862 22.4828 34.138C22.4064 33.9897 22.3006 33.8585 22.1719 33.7522C22.0432 33.6459 21.8943 33.5667 21.7341 33.5195C21.574 33.4722 21.4059 33.4579 21.24 33.4774C21.0741 33.4968 20.9139 33.5496 20.769 33.6326C20.6242 33.7155 20.4977 33.827 20.3971 33.9601C19.6301 34.8864 18.8397 35.3512 17.979 35.3779C16.3412 35.4347 14.891 33.92 14.8809 33.91C14.7123 33.7281 14.4927 33.6012 14.2507 33.5457C14.0088 33.4903 13.7557 33.5088 13.5245 33.599C11.0996 34.552 8.83554 33.074 7.83077 31.1246C6.86953 29.2387 6.91977 26.5402 9.94414 24.6209C10.0809 24.533 10.199 24.4192 10.2918 24.2858C10.3845 24.1524 10.45 24.0021 10.4845 23.8434C10.519 23.6847 10.5219 23.5208 10.493 23.361C10.464 23.2013 10.4039 23.0487 10.3159 22.9122C10.228 22.7756 10.1139 22.6577 9.98028 22.5651C9.84666 22.4726 9.6961 22.4072 9.53717 22.3727C9.37825 22.3382 9.21408 22.3354 9.05404 22.3642C8.89401 22.3931 8.74123 22.4532 8.60444 22.541C7.34997 23.3016 6.31839 24.3788 5.61357 25.6641C3.55809 23.1479 2.44277 19.9965 2.45859 16.7495C2.45859 9.19921 8.32646 3.05998 15.5374 3.05998C21.5024 3.05998 24.2086 6.86523 24.7177 10.1288C25.1397 12.854 24.0947 16.0674 20.8124 17.1107C20.6495 17.1519 20.4967 17.2259 20.3634 17.3283C20.2302 17.4307 20.1194 17.5592 20.0377 17.7059C19.9561 17.8526 19.9053 18.0144 19.8887 18.1814C19.872 18.3484 19.8897 18.5171 19.9407 18.677C19.9918 18.8369 20.075 18.9848 20.1854 19.1114C20.2957 19.238 20.4309 19.3407 20.5825 19.4132C20.7341 19.4857 20.899 19.5265 21.0669 19.5331C21.2349 19.5396 21.4025 19.5118 21.5593 19.4513C22.7784 19.0723 23.8912 18.4126 24.8081 17.5253V25.5504C24.8113 26.0419 24.6242 26.5155 24.286 26.8725C23.9477 27.2295 23.4844 27.4423 22.9928 27.4664C22.7422 27.404 22.4884 27.3549 22.2325 27.3193C21.0875 27.175 19.925 27.3619 18.8833 27.8577C18.7368 27.9268 18.6054 28.0241 18.4966 28.144C18.3878 28.2638 18.3037 28.4039 18.2491 28.5562C18.1946 28.7085 18.1705 28.87 18.1785 29.0316C18.1864 29.1932 18.2262 29.3516 18.2955 29.4978C18.3647 29.644 18.4622 29.7752 18.5822 29.8838C18.7023 29.9925 18.8426 30.0764 18.9951 30.1309C19.1477 30.1854 19.3095 30.2094 19.4713 30.2014C19.6331 30.1935 19.7918 30.1538 19.9383 30.0847C20.5495 29.7886 21.2327 29.6726 21.9076 29.7503C24.8047 30.1482 24.8751 33.1476 24.8751 33.502V46.8371C23.4148 45.8674 21.6062 44.6436 20.1191 43.6137Z" fill="#00A79D"/>
<path d="M20.9829 25.1655C21.1439 25.1471 21.2997 25.0971 21.4413 25.0186C21.583 24.9401 21.7078 24.8344 21.8085 24.7077C21.9093 24.5811 21.9841 24.4358 22.0286 24.2803C22.0731 24.1247 22.0866 23.9619 22.0681 23.8012C22.0496 23.6405 21.9996 23.485 21.9209 23.3436C21.8423 23.2022 21.7365 23.0776 21.6096 22.977C21.4827 22.8764 21.3372 22.8017 21.1814 22.7572C21.0256 22.7128 20.8626 22.6994 20.7016 22.7178C16.4045 23.2127 15.1988 20.6413 14.8773 19.5145C14.3213 17.545 15.0146 15.4049 16.428 14.7462C16.7101 14.5991 16.9244 14.349 17.0264 14.048C17.1284 13.747 17.1102 13.4183 16.9755 13.1304C16.8408 12.8425 16.6 12.6176 16.3034 12.5025C16.0067 12.3874 15.6771 12.391 15.383 12.5125C14.6992 12.8603 14.0948 13.3455 13.6077 13.9376C13.1207 14.5297 12.7616 15.216 12.5529 15.9533C11.5481 16.077 9.30078 16.0369 8.48691 13.5257C8.44146 13.367 8.36447 13.219 8.26053 13.0906C8.1566 12.9621 8.02785 12.8559 7.88195 12.7782C7.73604 12.7005 7.57596 12.6529 7.41124 12.6383C7.24653 12.6236 7.08056 12.6422 6.92319 12.6929C6.76582 12.7437 6.62029 12.8255 6.49525 12.9335C6.37022 13.0416 6.26824 13.1736 6.19539 13.3219C6.12254 13.4701 6.0803 13.6314 6.0712 13.7963C6.06211 13.9611 6.08634 14.1261 6.14244 14.2814C7.2075 17.5817 9.86344 18.4578 11.9567 18.4578H12.2314C12.2553 19.0428 12.3475 19.6229 12.506 20.1866C13.2227 22.7245 15.4734 25.2491 19.6767 25.2491C20.1133 25.2449 20.5494 25.217 20.9829 25.1655Z" fill="#00A79D"/>
<path d="M55.9998 16.7492C55.9998 7.84125 49.0233 0.595215 40.4493 0.595215C33.4159 0.595215 29.5408 5.19295 28.8341 9.75056C28.7366 10.3765 28.6962 11.0099 28.7136 11.6432V25.5501C28.7151 26.212 28.8665 26.865 29.1565 27.4603C29.4465 28.0555 29.8675 28.5776 30.3882 28.9875C29.2738 30.2296 28.6615 31.8408 28.67 33.5083V49.144C28.6698 49.3664 28.7302 49.5847 28.8446 49.7755C28.9591 49.9664 29.1233 50.1225 29.3198 50.2274C29.4993 50.3256 29.7011 50.3762 29.9059 50.3745C30.1439 50.3734 30.3765 50.3037 30.5757 50.1739C30.9107 49.9632 38.1785 45.1582 39.9938 43.6769C40.3296 43.563 40.6555 43.4221 40.9684 43.2556C43.3631 41.9715 45.0277 39.1761 45.1081 36.3004C45.1081 36.3004 45.1081 36.2837 45.1081 36.277C47.4526 35.8858 49.375 34.2339 50.3932 32.2377C51.016 31.0194 51.2862 29.6518 51.1735 28.2886C51.3589 28.2175 51.5243 28.1028 51.6558 27.9543C54.4696 24.9012 56.0216 20.8979 55.9998 16.7492ZM50.3764 25.6604C49.6699 24.3753 48.6373 23.2982 47.3822 22.5373C47.106 22.3599 46.7704 22.2994 46.4495 22.369C46.1285 22.4386 45.8484 22.6326 45.6708 22.9085C45.4931 23.1843 45.4325 23.5192 45.5022 23.8397C45.5719 24.1601 45.7663 24.4398 46.0425 24.6171C49.0568 26.5365 49.1171 29.2349 48.1559 31.1208C47.1511 33.0703 44.887 34.5449 42.4622 33.5953C42.2332 33.5083 41.9835 33.4914 41.7448 33.5468C41.5062 33.6022 41.2895 33.7274 41.1225 33.9062C41.1225 33.9062 39.6589 35.4176 38.0345 35.3742C37.1704 35.3508 36.3599 34.886 35.6063 33.9564C35.3926 33.7212 35.0963 33.5773 34.7791 33.5546C34.4618 33.5319 34.148 33.6322 33.903 33.8347C33.6579 34.0371 33.5005 34.3261 33.4634 34.6415C33.4263 34.9569 33.5125 35.2744 33.7039 35.528C34.9331 37.016 36.3833 37.7918 37.9642 37.8386H38.1082C39.967 37.8386 41.5177 36.8053 42.3282 36.1332L42.6229 36.2068V36.2235C42.566 38.2298 41.3971 40.2127 39.7794 41.0787C38.5101 41.7475 37.1 41.6672 35.7335 40.8112C35.5959 40.7187 35.4409 40.6549 35.278 40.6235C35.1151 40.5921 34.9475 40.5938 34.7852 40.6284C34.6229 40.6631 34.4693 40.73 34.3335 40.8252C34.1977 40.9204 34.0825 41.0419 33.9948 41.1825C33.907 41.3231 33.8485 41.48 33.8228 41.6436C33.7971 41.8073 33.8046 41.9745 33.845 42.1352C33.8853 42.2959 33.9577 42.4468 34.0578 42.579C34.1578 42.7111 34.2835 42.8218 34.4274 42.9044C34.8866 43.1883 35.3736 43.4247 35.8809 43.61C34.3939 44.6399 32.5819 45.8604 31.115 46.8435V33.4883C31.115 33.3545 31.0982 30.1645 34.0824 29.7566C34.7573 29.6789 35.4405 29.7949 36.0517 30.091C36.3475 30.2306 36.6868 30.2473 36.9949 30.1372C37.303 30.0272 37.5546 29.7994 37.6945 29.5041C37.8344 29.2088 37.8511 28.8701 37.7409 28.5625C37.6307 28.2549 37.4025 28.0037 37.1067 27.864C36.065 27.3682 34.9025 27.1813 33.7575 27.3256C33.5016 27.3609 33.2478 27.41 32.9972 27.4728C32.5053 27.4486 32.0416 27.236 31.7028 26.8791C31.3641 26.5221 31.1763 26.0485 31.1786 25.5568V17.5316C32.0972 18.4182 33.211 19.0778 34.4307 19.4576C34.5875 19.5181 34.7551 19.546 34.9231 19.5394C35.091 19.5328 35.2559 19.4921 35.4075 19.4195C35.5591 19.347 35.6943 19.2443 35.8046 19.1177C35.915 18.9911 35.9982 18.8433 36.0493 18.6833C36.1003 18.5234 36.118 18.3548 36.1013 18.1877C36.0847 18.0207 36.0339 17.8589 35.9523 17.7122C35.8706 17.5655 35.7598 17.437 35.6266 17.3346C35.4933 17.2323 35.3405 17.1582 35.1776 17.117C31.892 16.0737 30.8504 12.8603 31.2724 10.1351C31.7781 6.87155 34.4876 3.06629 40.4493 3.06629C47.6635 3.06629 53.5314 9.20552 53.5314 16.7558C53.5443 19.9992 52.4292 23.1466 50.3764 25.6604Z" fill="#2B3990"/>
<path d="M49.0638 12.7299C48.9096 12.6805 48.7472 12.6618 48.5858 12.6751C48.4244 12.6883 48.2673 12.7331 48.1232 12.807C47.9792 12.881 47.8512 12.9825 47.7465 13.1058C47.6418 13.2291 47.5625 13.3718 47.5131 13.5257C46.6992 16.0369 44.4987 16.0838 43.4437 15.9567C43.2368 15.2182 42.8783 14.5307 42.3911 13.9378C41.9039 13.3449 41.2986 12.8595 40.6136 12.5126C40.3169 12.3747 39.9775 12.3601 39.6701 12.472C39.3626 12.5839 39.1123 12.8132 38.9742 13.1094C38.8361 13.4056 38.8214 13.7445 38.9335 14.0515C39.0457 14.3584 39.2753 14.6083 39.572 14.7462C40.9854 15.415 41.6787 17.5417 41.1194 19.5145C40.8012 20.6414 39.5954 23.2128 35.2984 22.7179C34.9733 22.6806 34.6467 22.7738 34.3904 22.977C34.1341 23.1802 33.9692 23.4767 33.9319 23.8013C33.8946 24.1259 33.9879 24.4519 34.1915 24.7078C34.395 24.9636 34.6919 25.1283 35.017 25.1655C35.4516 25.2178 35.8889 25.2446 36.3266 25.2458C40.5265 25.2458 42.7772 22.7212 43.4973 20.1833C43.6558 19.6196 43.748 19.0395 43.7719 18.4545H44.0432C46.1365 18.4545 48.7925 17.5784 49.8609 14.2781C49.9591 13.9672 49.9304 13.6303 49.7812 13.3404C49.6319 13.0505 49.3741 12.8311 49.0638 12.7299Z" fill="#2B3990"/>
</svg>
