<svg width="156" height="29" viewBox="0 0 156 29" fill="none" xmlns="http://www.w3.org/2000/svg">
<path d="M14.4105 16.7039C14.7035 16.4736 14.9404 16.1801 15.1035 15.8453C15.2666 15.5105 15.3516 15.1432 15.3522 14.7709V6.95216C15.362 6.59545 15.3393 6.23859 15.2844 5.88597C14.8795 3.32298 12.7041 0.746826 8.74316 0.746826C3.9215 0.746826 0.00013451 4.82166 0.00013451 9.83106C-0.0124792 12.1675 0.862464 14.4219 2.44863 16.1398C2.52186 16.2233 2.61429 16.2878 2.71798 16.3279C2.6552 17.0946 2.80782 17.8637 3.1587 18.5486C3.72374 19.6769 4.8218 20.6001 6.12892 20.8201V20.8333C6.176 22.4505 7.11208 24.03 8.45875 24.7445C8.63423 24.8379 8.81687 24.9171 9.00495 24.9815C10.0258 25.8183 14.1242 28.5166 14.3012 28.6351C14.4135 28.7078 14.5442 28.7469 14.6779 28.7479C14.793 28.7484 14.9064 28.7199 15.0075 28.6652C15.1178 28.6059 15.2099 28.518 15.2742 28.4108C15.3385 28.3035 15.3726 28.1809 15.3729 28.0559V19.2745C15.3827 18.3281 15.0397 17.4118 14.4105 16.7039ZM11.3141 24.9288C11.5989 24.825 11.8722 24.692 12.1296 24.5321C12.2122 24.4866 12.2846 24.4248 12.3424 24.3505C12.4003 24.2761 12.4424 24.1908 12.4662 24.0998C12.49 24.0087 12.495 23.9137 12.4809 23.8206C12.4667 23.7276 12.4338 23.6383 12.384 23.5584C12.3342 23.4784 12.2687 23.4094 12.1914 23.3556C12.1141 23.3017 12.0266 23.2641 11.9342 23.2451C11.8419 23.226 11.7466 23.226 11.6543 23.2449C11.5619 23.2637 11.4744 23.3012 11.3969 23.3549C10.621 23.8363 9.83368 23.889 9.11985 23.5054C8.21202 23.0183 7.55469 21.8957 7.52267 20.775C7.52249 20.7719 7.52249 20.7687 7.52267 20.7656L7.6903 20.7242C8.1461 21.1003 9.00873 21.6832 10.0635 21.6832H10.1426C11.041 21.6569 11.849 21.2207 12.5402 20.3839C12.6033 20.3144 12.6516 20.2329 12.6823 20.1443C12.713 20.0557 12.7253 19.9617 12.7186 19.8682C12.7119 19.7747 12.6863 19.6835 12.6433 19.6001C12.6003 19.5168 12.5408 19.4429 12.4685 19.3832C12.3961 19.3234 12.3124 19.2789 12.2223 19.2523C12.1322 19.2257 12.0377 19.2177 11.9444 19.2286C11.8511 19.2395 11.761 19.2692 11.6796 19.3159C11.5981 19.3626 11.5269 19.4252 11.4704 19.5001C11.0391 20.021 10.5946 20.2823 10.1105 20.2974C9.18954 20.3294 8.374 19.4775 8.36835 19.4719C8.2735 19.3696 8.15001 19.2983 8.01395 19.2671C7.87789 19.2359 7.73557 19.2463 7.60554 19.297C6.24192 19.8329 4.9687 19.0018 4.40366 17.9055C3.86311 16.845 3.89136 15.3275 5.59212 14.2481C5.66905 14.1987 5.73547 14.1347 5.78761 14.0597C5.83974 13.9847 5.87658 13.9001 5.89599 13.8109C5.9154 13.7217 5.91703 13.6295 5.90076 13.5397C5.88449 13.4498 5.85066 13.364 5.8012 13.2872C5.75173 13.2104 5.68759 13.1441 5.61245 13.0921C5.53731 13.04 5.45264 13.0033 5.36327 12.9839C5.27389 12.9645 5.18157 12.9629 5.09158 12.9791C5.00158 12.9954 4.91566 13.0291 4.83874 13.0785C4.13328 13.5063 3.55317 14.112 3.15681 14.8348C2.00091 13.4198 1.3737 11.6476 1.3826 9.82166C1.3826 5.57571 4.68242 2.12328 8.7375 2.12328C12.0919 2.12328 13.6138 4.26318 13.9001 6.09846C14.1374 7.63099 13.5497 9.43806 11.7039 10.0247C11.6123 10.0479 11.5264 10.0896 11.4515 10.1471C11.3765 10.2047 11.3142 10.277 11.2683 10.3595C11.2224 10.442 11.1938 10.533 11.1845 10.6269C11.1751 10.7208 11.1851 10.8157 11.2137 10.9056C11.2424 10.9955 11.2893 11.0786 11.3513 11.1498C11.4134 11.221 11.4894 11.2788 11.5747 11.3196C11.6599 11.3604 11.7526 11.3833 11.8471 11.387C11.9415 11.3907 12.0358 11.375 12.124 11.341C12.8095 11.1279 13.4353 10.7569 13.9509 10.2579V14.7709C13.9527 15.0472 13.8475 15.3136 13.6573 15.5144C13.4671 15.7151 13.2066 15.8348 12.9301 15.8484C12.7891 15.8132 12.6464 15.7856 12.5025 15.7656C11.8586 15.6845 11.2049 15.7895 10.6191 16.0684C10.5367 16.1073 10.4628 16.162 10.4016 16.2294C10.3405 16.2968 10.2932 16.3755 10.2625 16.4612C10.2318 16.5468 10.2183 16.6377 10.2227 16.7285C10.2272 16.8194 10.2496 16.9085 10.2885 16.9907C10.3275 17.0729 10.3823 17.1467 10.4498 17.2078C10.5173 17.2689 10.5962 17.3161 10.682 17.3467C10.7678 17.3774 10.8588 17.3909 10.9498 17.3864C11.0408 17.3819 11.13 17.3596 11.2124 17.3207C11.5561 17.1542 11.9403 17.089 12.3198 17.1327C13.949 17.3564 13.9886 19.0432 13.9886 19.2425V26.7415C13.1674 26.1962 12.1503 25.508 11.3141 24.9288Z" fill="#00A79D"/>
<path d="M11.7998 14.5544C11.8903 14.5441 11.9779 14.516 12.0576 14.4718C12.1372 14.4277 12.2074 14.3683 12.2641 14.297C12.3207 14.2258 12.3628 14.1441 12.3878 14.0566C12.4129 13.9692 12.4204 13.8776 12.41 13.7872C12.3997 13.6969 12.3715 13.6094 12.3273 13.5299C12.2831 13.4503 12.2236 13.3803 12.1522 13.3237C12.0808 13.2671 11.999 13.2252 11.9114 13.2002C11.8238 13.1751 11.7321 13.1676 11.6416 13.178C9.22511 13.4563 8.54707 12.0103 8.36626 11.3766C8.05361 10.269 8.44348 9.06554 9.2383 8.6951C9.39694 8.61236 9.51749 8.47172 9.57484 8.30245C9.63219 8.13319 9.62193 7.94836 9.54619 7.78647C9.47045 7.62457 9.33507 7.49808 9.16825 7.43336C9.00143 7.36863 8.81603 7.37065 8.65066 7.43899C8.26611 7.63456 7.92621 7.90741 7.65233 8.24039C7.37845 8.57337 7.17649 8.9593 7.05914 9.37393C6.4941 9.44351 5.2303 9.42094 4.77262 8.00875C4.74706 7.91949 4.70376 7.83627 4.64531 7.76405C4.58687 7.69184 4.51447 7.6321 4.43241 7.58841C4.35036 7.54471 4.26034 7.51794 4.16771 7.5097C4.07509 7.50146 3.98175 7.51192 3.89325 7.54044C3.80476 7.56897 3.72292 7.61499 3.6526 7.67575C3.58229 7.73651 3.52494 7.81077 3.48397 7.89412C3.443 7.97747 3.41925 8.0682 3.41413 8.1609C3.40902 8.2536 3.42265 8.34639 3.4542 8.43373C4.05314 10.2897 5.54672 10.7824 6.72388 10.7824H6.87832C6.89181 11.1113 6.94364 11.4376 7.03277 11.7545C7.43583 13.1818 8.70151 14.6015 11.0652 14.6015C11.3108 14.5991 11.556 14.5834 11.7998 14.5544Z" fill="#00A79D"/>
<path d="M31.4921 9.82154C31.4921 4.81214 27.5689 0.737305 22.7472 0.737305C18.792 0.737305 16.6128 3.32286 16.2154 5.88585C16.1605 6.23783 16.1378 6.59407 16.1476 6.95016V14.7708C16.1484 15.143 16.2336 15.5102 16.3967 15.845C16.5598 16.1797 16.7965 16.4733 17.0893 16.7038C16.4626 17.4023 16.1183 18.3084 16.1231 19.2461V28.0389C16.123 28.164 16.1569 28.2867 16.2213 28.394C16.2856 28.5014 16.378 28.5892 16.4885 28.6481C16.5895 28.7034 16.703 28.7319 16.8181 28.7309C16.9519 28.7303 17.0827 28.6911 17.1948 28.6181C17.3831 28.4996 21.4702 25.7974 22.4911 24.9644C22.6799 24.9004 22.8632 24.8212 23.0391 24.7275C24.3858 24.0054 25.3219 22.4334 25.3671 20.8163C25.3671 20.8163 25.3671 20.8069 25.3671 20.8031C26.6855 20.5831 27.7666 19.6542 28.3392 18.5316C28.6894 17.8464 28.8414 17.0774 28.778 16.3108C28.8823 16.2708 28.9753 16.2063 29.0493 16.1228C30.6316 14.4059 31.5044 12.1546 31.4921 9.82154ZM28.3298 14.8328C27.9325 14.1101 27.3518 13.5044 26.646 13.0765C26.4906 12.9768 26.3019 12.9427 26.1215 12.9819C25.941 13.021 25.7834 13.1301 25.6835 13.2852C25.5836 13.4403 25.5495 13.6287 25.5887 13.8089C25.6279 13.9891 25.7372 14.1464 25.8926 14.2461C27.5877 15.3255 27.6216 16.843 27.0811 17.9035C26.516 18.9998 25.2428 19.8291 23.8792 19.295C23.7504 19.2461 23.61 19.2366 23.4758 19.2678C23.3416 19.2989 23.2197 19.3693 23.1258 19.4699C23.1258 19.4699 22.3027 20.3198 21.3892 20.2954C20.9033 20.2822 20.4475 20.0209 20.0237 19.4981C19.9036 19.3658 19.737 19.2849 19.5585 19.2721C19.3801 19.2594 19.2037 19.3158 19.0659 19.4296C18.9281 19.5435 18.8395 19.706 18.8187 19.8834C18.7978 20.0607 18.8463 20.2393 18.9539 20.3819C19.6452 21.2187 20.4607 21.6549 21.3497 21.6812H21.4307C22.476 21.6812 23.348 21.1002 23.8038 20.7222L23.9696 20.7636V20.773C23.9376 21.9013 23.2802 23.0163 22.3705 23.5034C21.6567 23.8794 20.8638 23.8343 20.0953 23.3529C20.0179 23.3009 19.9308 23.265 19.8391 23.2474C19.7475 23.2297 19.6533 23.2306 19.562 23.2501C19.4708 23.2696 19.3844 23.3072 19.308 23.3608C19.2316 23.4143 19.1668 23.4827 19.1175 23.5617C19.0681 23.6408 19.0353 23.729 19.0208 23.821C19.0063 23.9131 19.0106 24.0071 19.0333 24.0975C19.056 24.1878 19.0967 24.2727 19.1529 24.347C19.2092 24.4213 19.2799 24.4836 19.3608 24.5301C19.619 24.6897 19.8929 24.8227 20.1782 24.9268C19.3419 25.506 18.323 26.1923 17.498 26.7452V19.2348C17.498 19.1596 17.4886 17.3657 19.1668 17.1363C19.5463 17.0926 19.9305 17.1578 20.2742 17.3244C20.4406 17.4029 20.6314 17.4123 20.8046 17.3504C20.9779 17.2885 21.1194 17.1604 21.1981 16.9943C21.2768 16.8283 21.2861 16.6378 21.2241 16.4648C21.1621 16.2918 21.0339 16.1505 20.8675 16.072C20.2817 15.7932 19.628 15.6881 18.9841 15.7693C18.8402 15.7891 18.6974 15.8167 18.5565 15.852C18.2799 15.8384 18.0191 15.7188 17.8286 15.5181C17.6381 15.3174 17.5325 15.051 17.5338 14.7745V10.2616C18.0504 10.7601 18.6767 11.1311 19.3626 11.3447C19.4508 11.3787 19.5451 11.3943 19.6395 11.3906C19.734 11.387 19.8267 11.364 19.912 11.3232C19.9972 11.2824 20.0732 11.2247 20.1353 11.1535C20.1973 11.0823 20.2442 10.9992 20.2729 10.9092C20.3016 10.8193 20.3115 10.7245 20.3021 10.6305C20.2928 10.5366 20.2642 10.4456 20.2183 10.3631C20.1724 10.2806 20.1101 10.2083 20.0351 10.1508C19.9602 10.0932 19.8743 10.0516 19.7827 10.0284C17.935 9.44169 17.3492 7.63463 17.5865 6.1021C17.8709 4.26682 19.3947 2.12692 22.7472 2.12692C26.8042 2.12692 30.104 5.57934 30.104 9.8253C30.1113 11.6492 29.4842 13.4191 28.3298 14.8328Z" fill="#2B3990"/>
<path d="M27.5911 7.56122C27.5045 7.53341 27.4131 7.52294 27.3224 7.53038C27.2316 7.53782 27.1432 7.56304 27.0622 7.6046C26.9813 7.64616 26.9093 7.70325 26.8504 7.7726C26.7915 7.84194 26.7469 7.92219 26.7191 8.00876C26.2614 9.42094 25.024 9.44727 24.4307 9.37582C24.3143 8.96051 24.1127 8.57387 23.8388 8.24046C23.5648 7.90704 23.2244 7.63412 22.8392 7.439C22.6723 7.36145 22.4815 7.35325 22.3086 7.41619C22.1357 7.47914 21.9949 7.60808 21.9172 7.77465C21.8396 7.94122 21.8313 8.13178 21.8944 8.3044C21.9574 8.47702 22.0866 8.61756 22.2534 8.69511C23.0482 9.07119 23.4381 10.2671 23.1236 11.3766C22.9447 12.0103 22.2666 13.4563 19.8501 13.178C19.6673 13.157 19.4836 13.2095 19.3395 13.3237C19.1954 13.438 19.1027 13.6047 19.0817 13.7872C19.0607 13.9698 19.1132 14.1531 19.2276 14.297C19.3421 14.4409 19.5091 14.5335 19.6919 14.5544C19.9363 14.5838 20.1822 14.5989 20.4284 14.5996C22.7902 14.5996 24.0559 13.1799 24.4608 11.7526C24.55 11.4357 24.6018 11.1094 24.6153 10.7805H24.7678C25.945 10.7805 27.4386 10.2878 28.0394 8.43185C28.0946 8.25704 28.0785 8.06754 27.9946 7.90452C27.9106 7.7415 27.7657 7.61813 27.5911 7.56122Z" fill="#2B3990"/>
<path d="M58.1279 11.1813V16.6128C58.1279 17.3167 57.733 17.7129 57.026 17.7129H55.9587C55.2517 17.7129 54.8568 17.3167 54.8568 16.6128V11.014C54.8568 9.30221 54.1267 8.53673 52.5451 8.53673C50.9635 8.53673 50.3759 9.30606 50.3759 11.014V16.6128C50.3759 17.3167 49.981 17.7129 49.2739 17.7129H48.2182C47.5112 17.7129 47.1163 17.3167 47.1163 16.6128V11.014C47.1163 9.30221 46.5384 8.53673 44.9471 8.53673C43.3559 8.53673 42.6354 9.30606 42.6354 11.014V16.6128C42.6354 17.3167 42.2501 17.7129 41.5334 17.7129H40.4662C39.7592 17.7129 39.3643 17.3167 39.3643 16.6128V11.1813C39.3643 7.18655 41.4371 5.73828 44.6601 5.73828C46.7927 5.73828 48.0391 6.34798 48.7461 7.42505C49.4415 6.34798 50.6995 5.73828 52.8206 5.73828C56.0551 5.73828 58.1279 7.18655 58.1279 11.1813Z" fill="#00A79D"/>
<path d="M61.2295 2.59164C61.2295 1.43764 61.8537 0.737549 63.0866 0.737549C64.3195 0.737549 64.9437 1.44341 64.9437 2.59164C64.9437 3.73987 64.333 4.42265 63.0866 4.42265C61.8402 4.42265 61.2295 3.73987 61.2295 2.59164ZM61.3855 16.6127V7.05377C61.3855 6.34791 61.7708 5.95362 62.4875 5.95362H63.6742C64.3812 5.95362 64.7761 6.3383 64.7761 7.05377V16.6127C64.7761 17.3167 64.3812 17.7129 63.6742 17.7129H62.4875C61.7805 17.7129 61.3855 17.3167 61.3855 16.6127Z" fill="#00A79D"/>
<path d="M79.8241 11.2775V16.6128C79.8241 17.3167 79.4388 17.7129 78.7222 17.7129H77.5971C76.8901 17.7129 76.4933 17.3167 76.4933 16.6128V11.2275C76.4933 9.12142 75.7227 8.5348 73.9291 8.5348C72.1356 8.5348 71.365 9.12142 71.365 11.2275V16.6128C71.365 17.3167 70.9797 17.7129 70.2631 17.7129H69.138C68.431 17.7129 68.0342 17.3167 68.0342 16.6128V11.2775C68.0342 6.98267 70.2034 5.73828 73.9291 5.73828C77.6549 5.73828 79.8241 6.98267 79.8241 11.2775Z" fill="#00A79D"/>
<path d="M92.0086 0.9646H93.1356C93.8426 0.9646 94.2375 1.3608 94.2375 2.06666V14.1721C94.2375 16.8513 92.7407 17.9284 89.2403 17.9284C85.0349 17.9284 82.5439 16.3724 82.5439 11.8276C82.5439 7.28274 85.0349 5.73831 89.2403 5.73831C89.7682 5.73831 90.3307 5.76139 90.9067 5.80947V2.06666C90.9067 1.3608 91.3016 0.9646 92.0086 0.9646ZM90.9067 13.6701V8.66946C90.2877 8.57986 89.6634 8.53167 89.038 8.52521C86.8091 8.52521 85.8748 9.3157 85.8748 11.8276C85.8748 14.3029 86.8091 15.128 89.013 15.128C90.714 15.128 90.9067 14.6376 90.9067 13.6701Z" fill="#00A79D"/>
<path d="M115.972 11.1813V16.6128C115.972 17.3167 115.575 17.7129 114.87 17.7129H113.802C113.095 17.7129 112.7 17.3167 112.7 16.6128V11.014C112.7 9.30221 111.968 8.53673 110.389 8.53673C108.809 8.53673 108.221 9.30606 108.221 11.014V16.6128C108.221 17.3167 107.827 17.7129 107.12 17.7129H106.064C105.357 17.7129 104.962 17.3167 104.962 16.6128V11.014C104.962 9.30221 104.384 8.53673 102.793 8.53673C101.201 8.53673 100.481 9.30606 100.481 11.014V16.6128C100.481 17.3167 100.096 17.7129 99.3791 17.7129H98.306C97.599 17.7129 97.2041 17.3167 97.2041 16.6128V11.1813C97.2041 7.18655 99.277 5.73828 102.5 5.73828C104.633 5.73828 105.879 6.34798 106.586 7.42505C107.281 6.34798 108.539 5.73828 110.66 5.73828C113.899 5.73828 115.972 7.18655 115.972 11.1813Z" fill="#2B3990"/>
<path d="M119.073 2.59164C119.073 1.43764 119.695 0.737549 120.93 0.737549C122.165 0.737549 122.787 1.44341 122.787 2.59164C122.787 3.73987 122.177 4.42265 120.93 4.42265C119.684 4.42265 119.073 3.73987 119.073 2.59164ZM119.229 16.6127V7.05377C119.229 6.34791 119.624 5.95362 120.331 5.95362H121.518C122.225 5.95362 122.62 6.3383 122.62 7.05377V16.6127C122.62 17.3167 122.235 17.7129 121.518 17.7129H120.331C119.624 17.7129 119.229 17.3167 119.229 16.6127Z" fill="#2B3990"/>
<path d="M132.528 8.68088H129.268V13.37C129.268 14.5894 129.808 15.101 131.126 15.101C131.761 15.101 132.168 14.9683 132.588 14.9683C133.331 14.9683 133.618 15.2568 133.618 15.8415V16.4396C133.618 17.0512 133.331 17.4936 132.732 17.6128C128.922 18.5226 125.878 17.5532 125.878 13.3661V4.32646C125.878 3.6206 126.273 3.22632 126.98 3.22632H128.167C128.874 3.22632 129.268 3.61098 129.268 4.32646V5.9536H132.528C133.235 5.9536 133.63 6.33827 133.63 7.05375V7.58074C133.63 8.28661 133.235 8.68088 132.528 8.68088Z" fill="#2B3990"/>
<path d="M143.071 6.93456V7.62889C143.071 8.33475 142.651 8.72903 141.861 8.74057C139.345 8.77711 139.237 8.99252 139.237 9.89457V16.6262C139.237 17.3302 138.852 17.7264 138.135 17.7264H136.949C136.242 17.7264 135.847 17.3302 135.847 16.6262V9.40989C135.847 6.67107 136.829 5.93058 141.898 5.84596C142.664 5.83442 143.071 6.21715 143.071 6.93456Z" fill="#2B3990"/>
<path d="M156 10.3313V14.2799C156 16.7668 154.861 17.713 152.286 17.713H149.566C146.641 17.713 144.855 16.9437 144.855 14.1241C144.855 11.3045 146.653 10.5236 149.566 10.5236H152.669V10.3313C152.669 9.01574 151.625 8.44259 149.876 8.44259C148.839 8.46844 147.807 8.59208 146.793 8.81186C146.038 8.95611 145.584 8.60991 145.584 7.8502V7.40591C145.584 6.74813 145.954 6.31923 146.74 6.16344C147.932 5.90232 149.148 5.76185 150.369 5.74416C153.596 5.73839 156 7.11357 156 10.3313ZM152.669 14.1126V12.9028H149.743C148.292 12.9028 147.994 13.2394 147.994 14.1241C147.994 15.0088 148.292 15.332 149.727 15.332H151.477C152.5 15.332 152.669 14.9127 152.669 14.1126Z" fill="#2B3990"/>
<path d="M39.8146 26.7375V19.5533H44.2586V20.2615H40.6767V22.7657H43.9507V23.4636H40.6767V26.0294H44.2586V26.7375H39.8146ZM45.0432 26.7375L46.8085 24.1923L45.0432 21.647H45.9772L47.4037 23.751L48.8406 21.647H49.7643L47.999 24.1923L49.7643 26.7375H48.8406L47.4037 24.6336L45.9772 26.7375H45.0432ZM50.6679 28.9954V21.647H51.4479L51.53 22.4886C51.6942 22.2423 51.9269 22.0199 52.2279 21.8215C52.5358 21.6231 52.9258 21.5239 53.3979 21.5239C53.9042 21.5239 54.3455 21.6402 54.7219 21.8728C55.0982 22.1054 55.389 22.4236 55.5942 22.8273C55.8063 23.231 55.9124 23.6894 55.9124 24.2025C55.9124 24.7157 55.8063 25.1741 55.5942 25.5778C55.389 25.9747 55.0948 26.2894 54.7116 26.522C54.3353 26.7478 53.894 26.8607 53.3876 26.8607C52.9703 26.8607 52.5974 26.7752 52.269 26.6041C51.9474 26.4331 51.7011 26.1936 51.53 25.8857V28.9954H50.6679ZM53.2953 26.1115C53.6374 26.1115 53.9384 26.0328 54.1984 25.8754C54.4584 25.7112 54.6637 25.4854 54.8142 25.1981C54.9648 24.9107 55.04 24.5754 55.04 24.1923C55.04 23.8091 54.9648 23.4739 54.8142 23.1865C54.6637 22.8991 54.4584 22.6768 54.1984 22.5194C53.9384 22.3552 53.6374 22.2731 53.2953 22.2731C52.9532 22.2731 52.6521 22.3552 52.3921 22.5194C52.1321 22.6768 51.9269 22.8991 51.7763 23.1865C51.6258 23.4739 51.5505 23.8091 51.5505 24.1923C51.5505 24.5754 51.6258 24.9107 51.7763 25.1981C51.9269 25.4854 52.1321 25.7112 52.3921 25.8754C52.6521 26.0328 52.9532 26.1115 53.2953 26.1115ZM59.4011 26.8607C58.9154 26.8607 58.4843 26.7512 58.108 26.5323C57.7317 26.3065 57.434 25.9952 57.2151 25.5983C57.003 25.2015 56.8969 24.7328 56.8969 24.1923C56.8969 23.6586 57.003 23.1933 57.2151 22.7965C57.4272 22.3928 57.7214 22.0815 58.0977 21.8625C58.4809 21.6368 58.9222 21.5239 59.4217 21.5239C59.9143 21.5239 60.3385 21.6368 60.6943 21.8625C61.0569 22.0815 61.334 22.3723 61.5256 22.7349C61.7172 23.0975 61.813 23.4875 61.813 23.9049C61.813 23.9802 61.8096 24.0554 61.8027 24.1307C61.8027 24.206 61.8027 24.2915 61.8027 24.3873H57.7488C57.7693 24.7773 57.8582 25.1023 58.0156 25.3623C58.1798 25.6154 58.3817 25.807 58.6211 25.937C58.8675 26.067 59.1275 26.132 59.4011 26.132C59.7569 26.132 60.0546 26.0499 60.294 25.8857C60.5335 25.7215 60.708 25.4991 60.8175 25.2186H61.6693C61.5325 25.6907 61.269 26.0841 60.879 26.3989C60.4959 26.7068 60.0033 26.8607 59.4011 26.8607ZM59.4011 22.2525C58.9906 22.2525 58.6246 22.3791 58.303 22.6323C57.9882 22.8786 57.8069 23.2412 57.759 23.7202H60.9611C60.9406 23.2618 60.7833 22.9025 60.489 22.6425C60.1948 22.3825 59.8322 22.2525 59.4011 22.2525ZM62.9557 26.7375V21.647H63.7357L63.8075 22.622C63.9649 22.2868 64.2043 22.0199 64.5259 21.8215C64.8475 21.6231 65.2443 21.5239 65.7164 21.5239V22.427H65.4804C65.1793 22.427 64.9022 22.4818 64.6491 22.5912C64.3959 22.6939 64.1941 22.8718 64.0435 23.1249C63.893 23.3781 63.8178 23.727 63.8178 24.1718V26.7375H62.9557ZM68.6956 26.7375C68.2304 26.7375 67.8643 26.6247 67.5975 26.3989C67.3306 26.1731 67.1972 25.766 67.1972 25.1775V22.3757H66.3146V21.647H67.1972L67.3101 20.4257H68.0593V21.647H69.5578V22.3757H68.0593V25.1775C68.0593 25.4991 68.1243 25.7181 68.2543 25.8344C68.3843 25.9439 68.6135 25.9986 68.942 25.9986H69.4756V26.7375H68.6956Z" fill="#2B3990"/>
</svg>
